<svg width="100" height="100" viewBox="0 0 100 100" fill="none" xmlns="http://www.w3.org/2000/svg">
<g id="Dropdown">
<rect id="BG" width="100" height="100" fill="#23252D"/>
<g id="https://www.flaticon.com/free-icon/menu_7873061?term=menu+line&#38;page=1&#38;position=13&#38;origin=search&#38;related_id=7873061">
<path d="M24.8156 62.942H75.1844C75.6618 62.942 76.1196 62.7524 76.4572 62.4148C76.7948 62.0772 76.9844 61.6194 76.9844 61.142C76.9844 60.6646 76.7948 60.2068 76.4572 59.8692C76.1196 59.5316 75.6618 59.342 75.1844 59.342H26.6156V40.6574H75.1844C75.6618 40.6574 76.1196 40.4678 76.4572 40.1302C76.7948 39.7926 76.9844 39.3348 76.9844 38.8574C76.9844 38.38 76.7948 37.9222 76.4572 37.5846C76.1196 37.247 75.6618 37.0574 75.1844 37.0574H24.8156C24.3382 37.0574 23.8804 37.247 23.5428 37.5846C23.2053 37.9222 23.0156 38.38 23.0156 38.8574V61.142C23.0156 61.6194 23.2053 62.0772 23.5428 62.4148C23.8804 62.7524 24.3382 62.942 24.8156 62.942Z" fill="white"/>
<path d="M34.175 51.8H65.825C66.0614 51.8 66.2955 51.7534 66.5139 51.663C66.7322 51.5725 66.9307 51.4399 67.0978 51.2728C67.265 51.1056 67.3975 50.9072 67.488 50.6888C67.5785 50.4704 67.625 50.2364 67.625 50C67.625 49.7636 67.5785 49.5296 67.488 49.3112C67.3975 49.0928 67.265 48.8944 67.0978 48.7272C66.9307 48.5601 66.7322 48.4275 66.5139 48.337C66.2955 48.2466 66.0614 48.2 65.825 48.2H34.1756C33.9392 48.2 33.7052 48.2466 33.4868 48.337C33.2684 48.4275 33.07 48.5601 32.9028 48.7272C32.7357 48.8944 32.6031 49.0928 32.5126 49.3112C32.4222 49.5296 32.3756 49.7636 32.3756 50C32.3756 50.2364 32.4222 50.4704 32.5126 50.6888C32.6031 50.9072 32.7357 51.1056 32.9028 51.2728C33.07 51.4399 33.2684 51.5725 33.4868 51.663C33.7052 51.7534 33.9386 51.8 34.175 51.8Z" fill="white"/>
</g>
</g>
</svg>
